<?xml version="1.0" standalone="no"?>
<!DOCTYPE svg PUBLIC "-//W3C//DTD SVG 20010904//EN"
 "http://www.w3.org/TR/2001/REC-SVG-20010904/DTD/svg10.dtd">
<svg version="1.0" xmlns="http://www.w3.org/2000/svg"
 width="256.000000pt" height="256.000000pt" viewBox="0 0 256.000000 256.000000"
 preserveAspectRatio="xMidYMid meet">
<metadata>
Created by potrace 1.11, written by Peter Selinger 2001-2013
</metadata>
<g transform="translate(0.000000,256.000000) scale(0.100000,-0.100000)"
fill="#000000" stroke="none">
<path d="M1220 2488 c-268 -121 -444 -246 -538 -381 -103 -149 -159 -321 -177
-547 -9 -106 -14 -168 -20 -220 -3 -25 -7 -81 -10 -125 -3 -44 -8 -96 -10
-115 -2 -19 -7 -79 -10 -132 -6 -88 -4 -101 14 -127 12 -17 44 -38 76 -51 60
-24 76 -43 70 -81 -9 -60 -16 -120 -21 -187 l-5 -72 48 -49 c99 -98 412 -335
460 -347 19 -5 78 20 246 104 122 61 247 125 277 143 135 76 370 222 382 236
12 15 13 47 4 175 -4 59 2 69 50 73 21 1 43 3 48 4 7 1 1 192 -9 252 -2 13 -6
62 -10 109 -3 47 -8 105 -10 130 -2 25 -6 72 -9 105 -5 55 -8 87 -21 230 -3
28 -7 79 -11 115 -14 155 -49 268 -117 375 -35 55 -34 54 -94 118 -67 72 -214
152 -427 234 -105 39 -142 46 -176 31z"/>
</g>
</svg>
