<?xml version="1.0" standalone="no"?>
<!DOCTYPE svg PUBLIC "-//W3C//DTD SVG 20010904//EN"
 "http://www.w3.org/TR/2001/REC-SVG-20010904/DTD/svg10.dtd">
<svg version="1.0" xmlns="http://www.w3.org/2000/svg"
 width="128.000000pt" height="128.000000pt" viewBox="0 0 128.000000 128.000000"
 preserveAspectRatio="xMidYMid meet">
<metadata>
Created by potrace 1.11, written by Peter Selinger 2001-2013
</metadata>
<g transform="translate(0.000000,128.000000) scale(0.100000,-0.100000)"
fill="#000000" stroke="none">
<path d="M610 1246 c-110 -32 -214 -105 -266 -187 -73 -116 -93 -213 -110
-524 -5 -101 -4 -112 14 -128 11 -10 30 -19 42 -20 21 -1 22 -4 15 -92 l-6
-91 73 -57 c40 -31 96 -74 124 -96 50 -38 52 -39 80 -25 26 14 124 69 244 138
25 14 75 42 112 63 l68 37 -4 58 -5 58 30 0 30 0 -5 68 c-10 130 -29 332 -42
427 -22 171 -136 317 -288 368 -57 20 -48 19 -106 3z"/>
</g>
</svg>
