<?xml version="1.0" encoding="UTF-8"?>
<svg width="310px" height="456px" viewBox="0 0 310 456" version="1.1" xmlns="http://www.w3.org/2000/svg" xmlns:xlink="http://www.w3.org/1999/xlink">
    <!-- Generator: Sketch 52.2 (67145) - http://www.bohemiancoding.com/sketch -->
    <title>head-on-black copy</title>
    <desc>Created with Sketch.</desc>
    <g id="Page-1" stroke="none" stroke-width="1" fill="none" fill-rule="evenodd">
        <g id="Artboard" transform="translate(-1307.000000, -112.000000)">
            <g id="head-on-black" transform="translate(1462.000000, 340.000000) scale(-1, 1) translate(-1462.000000, -340.000000) translate(1307.000000, 112.000000)">
                <g id="Group">
                    <path d="M295.356301,145.560959 C296.824808,160.719653 298.293314,176.034623 299.598653,191.193317 C301.067159,207.758487 302.862,224.323658 304.167339,240.888829 C306.125348,264.955209 307.593854,289.021589 309.878197,312.931695 C310.041365,315.275822 310.367699,318.088776 307.593854,318.870152 C304.493674,319.651528 300.903992,319.026427 297.640644,319.182702 C293.724628,319.338978 290.134945,319.964078 289.645443,324.183509 C289.319108,327.309013 289.482276,330.590792 289.808611,333.716296 C290.298113,341.686331 291.766619,349.656366 291.929786,357.626401 C291.929786,359.814253 291.440284,361.845831 290.46128,363.721133 C289.482276,365.596436 288.01377,367.159188 286.218928,368.096839 C281.16074,371.378618 275.939384,374.660397 270.881196,377.942176 C260.601651,384.349459 250.15894,390.600467 239.55306,396.851475 C223.399491,406.227987 207.245921,415.448223 190.602849,424.043359 C172.817606,433.263596 154.706028,442.171282 136.59445,450.766418 C134.473274,451.704069 132.352098,452.797995 130.230922,453.735646 C128.599248,454.673298 126.804407,455.298398 124.846399,455.610949 C123.214725,455.923499 121.583052,455.767224 119.951378,455.610949 C117.993369,455.142123 116.198528,454.204472 114.730022,452.95427 C106.571653,447.328363 98.5764523,441.702456 90.5812511,436.076549 C81.6070457,429.669266 72.7960077,422.949433 63.9849697,416.229599 C55.9897685,410.134867 48.4840695,403.571308 41.1415378,396.851475 C37.5518557,393.569696 33.7990061,390.444192 30.5356587,387.006138 C27.7618134,384.193184 26.1301397,380.442579 26.1301397,376.535699 C26.7828092,365.908986 27.9249808,355.282273 29.2303198,344.655559 C29.8829892,340.123579 30.6988261,335.591598 31.0251608,330.903342 C31.5146629,328.715489 31.0251608,326.371361 29.7198219,324.339784 C27.7618134,321.839381 24.1721313,320.745454 21.2351186,319.651528 C16.3400975,317.776226 10.7924069,316.213474 7.03955736,312.931695 C3.44987521,309.806191 -0.139806948,304.492834 0.0233604231,300.273404 C1.00236465,278.551151 3.12354046,256.828899 4.91838154,235.106647 C6.06055314,221.66698 7.3658921,208.383588 8.50806369,194.943921 C9.65023529,182.28563 10.4660721,169.471064 12.0977458,156.812773 C14.8715911,134.777971 20.7456165,113.055718 30.8619935,93.0524933 C36.5728514,81.6444039 43.7522157,71.0176906 52.0737516,61.1723532 C75.8961878,33.0428179 141.651371,0.208600183 152.225927,0.208600183 C159.999049,0.208600183 234.494872,29.9173139 251.137944,46.1699344 C273.655041,68.3610122 288.666439,94.3026948 293.235125,125.401459 C293.887795,129.881348 294.594853,136.601181 295.356301,145.560959 Z" id="Path" fill="#FFFFFF" fill-rule="nonzero"></path>
                    <g id="head-on-white" transform="translate(15.529807, 14.184812)" fill="#202020">
                        <g id="Group">
                            <path d="M265.753551,136.651629 C267.074504,150.874263 268.395458,165.243522 269.569638,179.466156 C270.890592,195.008415 272.505091,210.550675 273.679271,226.092935 C275.440543,248.673199 276.761496,265.93388 278.816313,288.367519 C278.963085,290.566895 279.25663,293.206147 276.761496,293.939272 C273.972817,294.672398 270.743819,295.629022 267.808367,295.775647 C264.285825,295.922272 261.056827,300.285231 260.61651,304.244108 C260.322964,307.17661 260.469737,310.255737 260.763282,313.188239 C261.2036,320.666118 262.524553,328.143998 262.671326,335.621878 C262.671326,337.674629 262.231008,339.580755 261.350373,341.340256 C260.469737,343.099757 259.148784,344.566008 257.534285,345.445759 C252.984334,348.524886 248.287611,351.604012 243.73766,354.683139 C234.490986,360.694768 225.097539,366.559772 215.55732,372.424775 C201.026832,381.222281 186.496344,389.873161 171.525539,397.937541 C155.527325,406.588422 139.235566,414.946052 122.943806,423.010432 C121.035763,423.890182 119.127719,424.916558 117.219675,425.796309 C115.751949,426.676059 114.13745,427.262559 112.376179,427.55581 C110.908453,427.84906 109.440727,427.702435 107.973001,427.55581 C106.21173,427.115934 104.597231,426.236184 103.276277,425.063183 C95.9376472,419.78468 88.7457896,414.506177 81.5539319,409.227673 C73.4814387,403.216045 65.555718,396.911166 57.6299974,390.606287 C50.4381397,384.887908 43.6865999,378.729654 37.0818327,372.424775 C33.8528354,369.345649 30.4770655,366.413147 27.5416134,363.187395 C25.0464791,360.548143 23.5787531,357.029141 23.5787531,353.363514 C24.1658435,343.393007 25.1932517,333.422501 26.3674326,323.451995 C26.954523,319.199867 27.688386,314.94774 27.9819312,310.548987 C28.422249,308.496236 27.9819312,306.296859 26.8077504,304.390733 C25.0464791,302.044732 21.8174818,301.018356 19.1755749,299.99198 C14.7723968,298.232479 9.78212825,296.766228 6.40635834,293.687102 C3.17736104,290.7546 -0.0516362632,285.769347 0.0951363414,281.810469 C0.975771969,261.429582 2.88381583,241.048694 4.49831448,220.667806 C5.52572271,208.058048 6.69990355,195.594916 7.72731178,182.985158 C8.75472002,171.108525 9.48858304,159.085268 10.9563091,147.208636 C13.4514434,126.534498 18.7352571,106.15361 27.8351586,87.3855984 C32.9721998,76.6819668 39.4301944,66.7114606 46.9155972,57.4740799 C68.3443975,31.0815635 127.492618,0.274882276 137.004661,0.274882276 C143.996754,0.274882276 211.007369,28.1490617 225.978175,43.3980711 C246.232794,64.2188341 259.735874,88.5585992 263.845507,117.736992 C264.432597,121.940245 265.068612,128.245124 265.753551,136.651629 Z M14.9191694,278.438092 C24.0190709,275.79884 29.3028847,269.200711 30.1835203,261.282956 C33.5592902,231.811313 36.9350601,202.33967 40.4576026,172.868027 C42.5124191,155.859516 47.2091424,150.874263 64.2347646,147.501886 C68.3443975,146.47551 72.600803,145.742385 76.710436,145.449135 C78.912025,145.449135 81.1136141,145.88901 82.1410223,147.941761 C83.6087484,150.581013 83.3152032,154.24664 83.1684306,157.179142 C83.021658,163.923896 82.5813402,170.66865 81.9942497,177.413404 C81.2603867,186.21091 80.3797511,195.008415 79.9394333,203.805921 C79.4991155,210.843925 81.9942497,212.163551 93.2957403,212.310176 C96.0844198,212.310176 97.5521458,210.99055 97.5521458,208.058048 C97.4053732,204.539046 97.5521458,201.166669 97.6989184,197.647667 C98.1392363,187.970411 98.7263267,178.14653 99.3134171,168.469274 C100.340825,148.968137 101.368234,129.320374 102.248869,109.819237 C102.689187,98.8223556 103.129505,87.8254737 103.42305,76.8285919 C104.01014,55.4213286 112.229406,38.412818 126.906667,23.6036838 C128.961483,21.5509326 130.135664,18.7650558 131.750163,16.2724293 L130.135664,14.3663031 C125.732486,16.4190544 121.035763,18.1785555 116.779357,20.671182 C94.6166937,33.2809399 73.4814387,47.2103235 57.9235426,67.8844613 C38.9898766,93.103977 30.9173833,122.722245 26.6609778,153.220264 C22.111027,185.91766 19.909438,219.05493 16.6804407,252.045576 C16.0933502,260.549831 15.6530324,269.054086 14.9191694,278.438092 Z M57.77677,265.535084 L56.8961343,262.749207 C66.5831263,258.79033 76.2701182,255.124703 85.8103375,250.872575 C89.33288,249.259699 93.2957403,247.353573 94.6166937,243.394695 C96.0844198,238.849317 95.9376472,234.010689 96.377965,229.318687 C96.8182828,224.919934 94.6166937,223.453683 90.3602882,223.013808 C83.755521,222.573932 77.2975264,221.547557 70.9863044,219.788056 C69.0782605,218.908305 67.6105345,217.442054 66.7298989,215.535928 C65.8492632,213.629802 65.4089454,211.430425 65.4089454,209.231049 C65.1154002,204.099171 65.555718,198.820668 65.555718,193.688789 C61.7396303,196.767916 59.244496,198.234167 57.6299974,200.286919 C53.3735918,205.858672 50.7316849,212.310176 49.7042767,219.201555 C49.2639589,222.573932 49.1171863,225.946309 49.2639589,229.318687 C49.4107315,231.518063 49.2639589,236.503316 51.9058658,237.383067 C54.4010001,238.262817 56.8961343,236.063441 58.510633,234.30394 C60.7122221,231.811313 62.6202659,229.025436 64.5283098,226.53281 L66.5831263,228.438936 C60.7122221,241.195319 54.2542275,253.658452 48.9704137,266.56146 C44.4204629,277.998217 44.5672356,290.021474 48.5300959,301.751482 C49.2639589,303.657608 50.7316849,305.270484 52.6397288,306.150234 C53.667137,306.443484 55.2816357,304.244108 55.8687261,303.657608 C57.1896796,302.337982 58.8041782,301.164981 60.1251316,299.99198 C62.9138111,297.499354 65.9960358,294.566852 69.6653509,293.687102 C77.1507538,292.074226 85.0764744,292.514101 92.8554225,292.660726 C98.5795541,292.807351 104.450458,293.100601 110.17459,293.393851 C113.110042,293.540476 115.898721,293.687102 118.834174,293.833727 C121.47608,294.126977 124.26476,294.126977 126.906667,293.833727 C128.667938,293.540476 130.282437,292.807351 131.750163,291.780975 C132.777571,291.04785 134.098524,290.314724 134.098524,288.995099 C133.951752,285.769347 132.484026,280.637468 129.401801,279.024592 C122.356716,275.358965 114.871313,272.719714 107.092365,271.106838 C97.4053732,269.054086 87.4248361,268.614211 77.5910716,267.294585 L77.7378442,264.508708 L126.906667,266.56146 C125.07983,265.633751 111.97132,261.740083 110.17459,261.123958 C94.6488686,255.799964 72.1156073,259.489913 57.77677,265.535084 Z" id="Shape" fill-rule="nonzero"></path>
                        </g>
                    </g>
                </g>
            </g>
        </g>
    </g>
</svg>