<?xml version="1.0" encoding="UTF-8"?>
<svg width="246px" height="115px" viewBox="0 0 246 115" version="1.1" xmlns="http://www.w3.org/2000/svg" xmlns:xlink="http://www.w3.org/1999/xlink">
    <!-- Generator: Sketch 52.2 (67145) - http://www.bohemiancoding.com/sketch -->
    <title>Group 3</title>
    <desc>Created with Sketch.</desc>
    <g id="Page-1" stroke="none" stroke-width="1" fill="none" fill-rule="evenodd">
        <g id="Artboard" transform="translate(-1490.000000, -900.000000)" fill="#641B2B" fill-rule="nonzero">
            <g id="Group-3" transform="translate(1490.000000, 900.000000)">
                <path d="M245.891203,69.1250567 C245.678839,75.6482203 245.201022,75.9664234 238.989398,74.2693402 C225.079606,70.5569706 211.010541,70.079666 196.729114,71.7237153 C183.456412,73.261697 170.608436,76.3906942 157.919733,80.4212668 C148.044842,83.550264 138.382315,87.3687013 128.666697,90.9219693 C117.942354,94.7934404 107.324192,98.9300807 96.4936669,102.589416 C87.6275019,105.612346 78.6551552,108.582242 69.5766269,110.703596 C53.7024751,114.415965 37.6159601,116.378218 21.3170818,113.885627 C16.1141825,113.090119 10.9112833,112.188543 5.81456563,110.915731 C4.38111379,110.544494 2.89457115,109.908088 1.9920274,108.741343 C1.24875608,107.627632 0.877120418,106.301786 1.03639284,104.97594 C1.14257446,103.703127 1.30184689,101.899976 2.25748145,100.945367 C3.26620681,99.9907577 4.91202188,100.468062 6.08001967,100.680198 C8.78765092,101.210536 11.548373,101.740875 14.2560042,102.324247 C26.5730718,105.028974 38.8901395,104.922906 51.3133887,103.33189 C70.6384431,100.839299 89.0078629,94.7934404 107.21801,88.2702767 C121.074711,83.2850948 134.719049,77.5574389 148.735023,72.9434939 C161.05209,68.9129212 173.634612,65.465721 186.270225,62.601893 C198.268747,59.9502005 210.638906,59.3137943 222.849792,60.7457083 C229.645415,61.4881822 236.387948,62.4958253 242.918117,64.9353825 C245.254113,65.8369579 246.36902,66.9506688 245.891203,69.1250567 Z" id="Shape"></path>
                <path d="M116.13381,49.5897293 C116.13381,45.640082 116.13381,41.6377727 116.13381,37.6881253 C116.13381,35.3183369 115.972379,32.8958865 115.972379,30.5260981 C115.972379,29.4728588 115.864758,28.2616337 116.13381,27.3137183 C116.402862,26.4711269 116.940966,25.7338593 117.640501,25.2072397 C118.447657,24.5752961 119.577674,24.2593243 120.492451,23.8906906 C121.568658,23.4693949 122.698676,22.9954372 123.774884,22.6268034 C125.981109,21.784212 128.187335,20.9942825 130.39356,20.257015 C131.093095,19.9937052 132.007871,19.7830573 132.545975,20.4150009 C133.030268,20.9942825 133.030268,21.836874 132.976458,22.5214795 C132.868837,27.0504085 132.653596,31.6319994 132.599785,36.1609283 C132.492165,48.1151943 132.384544,60.0167983 132.330733,71.9710643 C132.330733,74.4988386 131.577388,76.0260356 128.99449,76.868627 C125.173953,78.0798522 121.514848,79.7123731 117.748122,81.0815842 C116.725725,81.5555418 115.541896,81.344894 114.788551,80.6076265 C113.819964,79.6597111 113.335671,78.1851761 112.797567,76.9739509 C111.290877,73.814233 109.730376,70.6018532 108.169875,67.4421353 C107.308909,65.6516285 106.394132,63.8611217 105.533166,62.0706149 C105.156494,61.3333474 104.456959,60.7014039 103.649803,60.438094 C103.434562,61.3333474 103.16551,62.2286008 103.004079,63.1765162 C102.950268,64.1244316 102.896458,65.1250089 102.950268,66.0729242 C102.950268,67.968755 102.896458,69.8645857 102.896458,71.7077545 C102.896458,75.5520779 102.896458,79.3964013 102.896458,83.2407247 C102.896458,84.8732456 102.412165,86.0318088 100.905474,86.5584285 C96.8158855,88.0856255 92.726297,89.5601605 88.582898,90.8767096 C87.0762075,91.3506673 86.1614311,90.4027519 86.1076208,88.9808789 C86,86.8744003 86,84.7679217 86,82.6614431 C86.1614311,70.4965293 86.3228623,58.3316154 86.4842934,46.1667016 C86.4842934,44.6395046 86.5381038,43.1123077 86.5381038,41.5324487 C86.4842934,40.2685616 86.5381038,39.0046744 86.6995349,37.7407873 C87.1300179,35.8449566 88.5290877,34.8443792 90.3586404,34.3177596 C93.3182111,33.4751681 96.2239714,32.5799147 99.0759213,31.5793374 C100.36737,31.0527178 101.658819,30.5787601 102.950268,30.2101263 C103.757424,29.9468165 104.6722,30.1574644 105.317925,30.684084 C106.232701,31.5266755 106.663184,32.8432246 107.147478,33.8964639 C107.847013,35.4236608 108.546547,36.9508578 109.299893,38.4780548 C110.752773,41.5324487 112.259463,44.5868427 113.712343,47.5885747 C114.196637,48.3785041 114.734741,49.1157716 115.380465,49.8003772 L116.13381,49.5897293 Z" id="Shape"></path>
                <path d="M164.802892,44.2848355 C164.322362,44.1789741 164.055401,44.1260434 163.78844,44.0731127 C162.507027,43.7025978 160.584907,46.1903406 159.890808,43.3320829 C158.929749,39.4152112 159.784024,36.451092 162.34685,35.7100622 C168.219994,34.0162798 174.093138,32.5342203 180.073066,31.1050914 C180.553596,30.99923 181.888401,32.2695668 181.888401,32.9047352 C181.995186,41.1089935 182.048578,49.3132519 181.941793,57.5175103 C181.941793,59.0525005 180.126458,60.0052531 178.845045,60.375768 C178.097554,60.5874908 177.243278,60.6404215 176.495787,60.5345601 C175.58812,60.3228373 175.000805,59.6876689 174.360099,59.0525005 C164.909677,64.3985012 155.245686,68.1036501 144.407066,67.9977887 C140.616219,67.944858 138.160177,65.7217686 138.106784,61.963689 C138,50.6894501 137.893216,39.3622805 138.213569,28.0880415 C138.266961,23.1125558 140.829787,18.507585 145.047772,15.8081193 C149.746287,12.7381388 154.87194,10.409188 160.264554,8.92712844 C162.934165,8.18609865 165.71056,7.65679166 168.486955,7.33920746 C170.942997,7.07455397 173.559216,6.75696977 176.015257,7.28627676 C178.417907,7.81558376 180.286635,9.29764333 180.767165,11.7324555 C181.674832,16.2315649 181.62144,20.9423971 181.835009,25.6002987 C181.835009,26.1296057 180.980734,26.9764969 180.340027,27.1882196 C176.762749,28.1939029 173.18547,29.0407941 169.608192,29.940616 C168.486955,30.2052695 167.045365,30.8933686 165.870737,30.4169923 C164.963069,30.0464774 164.7495,29.0407941 164.7495,28.1939029 C164.696108,27.2411503 164.696108,26.3413285 164.642716,25.4415066 C164.535931,24.3828926 164.429147,23.3242786 164.322362,22.2656646 C164.162186,20.3072288 163.735048,18.507585 161.439183,18.1900008 C159.784024,17.9253473 158.128865,18.9839613 157.167805,20.2013674 C155.939784,21.7892883 155.779608,24.1711698 155.779608,26.076675 C155.726216,34.6514482 155.779608,43.1732908 155.726216,51.7480641 C155.726216,53.7594306 155.993177,55.5590744 158.075473,56.2471735 C160.264554,56.9882033 161.86632,55.7178665 163.094341,54.1299455 C165.443599,51.1658264 164.856284,47.6724002 164.802892,44.2848355 Z" id="Shape"></path>
                <path d="M82.9420317,82.8145854 C82.9420317,85.3716785 83.1030548,87.9287717 82.8883573,90.432592 C82.8346829,91.4447747 82.3516133,92.3504119 81.6001718,92.9896852 C80.687707,93.7887768 79.2384983,93.9485951 78.0576616,94.2682317 C72.5291989,95.8664149 66.9470617,97.4113254 61.3112502,98.4235081 C58.0907864,99.0095086 54.8703227,99.4356908 51.5961845,99.861873 C48.4293952,100.288055 48.0536744,99.861873 48.0536744,96.6655065 C48.0536744,80.1509467 48.1073488,63.6363868 48,47.121827 C48,44.5647339 48.6977671,43.8721878 51.3278125,43.3927328 C60.7745062,41.6880041 70.1138511,39.5038204 79.5068703,37.479455 C80.3656607,37.3196366 81.224451,37.2130911 82.3516133,37 C82.3516133,38.9710926 82.4052877,40.9421853 82.3516133,42.9132779 C82.3516133,43.3394601 82.3516133,43.818915 82.2979389,44.2450972 C82.3516133,44.6712794 82.2979389,45.0974616 82.1369157,45.470371 C81.8148693,46.1096443 81.224451,46.5358265 80.5803582,46.7489176 C76.2327322,48.0274642 71.8851061,49.252738 67.4838057,50.3181934 C65.766225,50.7443756 65.0684579,51.4369217 65.1221323,53.1949232 C65.1758066,55.6454708 64.7464115,58.0960184 64.9074347,60.546566 C64.9074347,61.1858393 65.1221323,61.7718398 65.5515274,62.198022 C66.1419458,62.6774769 67.0007361,62.5176586 67.6985033,62.3045675 C69.7381303,61.6652942 71.8314317,61.1858393 73.8710588,60.7063843 C74.8908723,60.4932932 75.8570114,60.2269293 76.8768249,60.0138382 C77.4672433,59.8540199 78.0576616,59.8540199 78.5944056,59.9605655 C79.8825911,60.3334749 79.6678935,61.9316581 79.5605447,62.9438408 C79.4531959,64.0092963 79.2921727,65.021479 79.2384983,66.0869344 C79.1848239,67.0458444 79.2921727,68.0580271 79.2384983,69.016937 C79.1311496,70.6151202 77.8966384,71.2543935 76.5011042,71.6273029 C73.495338,72.3731217 70.4895718,73.1722133 67.4838057,73.8114866 C66.302969,74.0778505 65.3905042,74.663851 65.1758066,75.9423976 C65.1221323,76.7414892 65.0684579,77.5938536 65.0684579,78.3929452 C65.0147835,79.3518551 64.9611091,80.3640378 64.9074347,81.3229477 C64.8537603,82.2285849 64.7464115,83.134222 64.8000859,83.9865864 C64.8000859,84.5193141 64.9074347,85.0520419 65.1221323,85.4782241 C65.7125506,86.437134 66.9470617,86.3838612 67.9132008,86.1707701 C71.7777573,85.2118602 75.6959882,84.1996775 79.5605447,83.2940403 C80.3656607,83.2407676 81.224451,83.134222 82.9420317,82.8145854 Z" id="Shape"></path>
                <path d="M12.7651551,75.4077746 C12.7651551,68.6892698 12.71162,62.0236666 12.8186903,55.3051618 C12.8186903,54.3529327 12.7651551,53.2949005 12.0691984,52.6071795 C11.1591011,51.7078521 9.66011739,51.6020489 8.48234446,51.2846392 C6.87629046,50.8085247 5.27023646,50.2266069 3.66418246,49.803394 C2.64701492,49.538886 1.52277713,49.3272795 0.773285259,48.4808537 C0.0773285259,47.6873295 0.0237933926,46.5763957 0.0237933926,45.571265 C0.0237933926,44.5661344 -0.0297417407,43.5610037 0.0237933926,42.5558731 C0.0773285259,41.6565457 0.130863659,40.3340054 1.14803119,40.0694973 C1.79045279,39.9636941 2.43287439,39.9636941 3.07529599,40.1753005 C4.19953379,40.386907 5.32377159,40.7572183 6.39447426,41.0746279 C15.9772631,43.7197086 25.8812628,45.0422489 35.8387976,44.9364457 C37.0165705,44.9364457 38.2478786,44.9364457 39.4256515,44.8835441 C40.0680731,44.8306424 40.7640298,44.8306424 41.4064514,44.9364457 C42.3700838,45.0951505 42.6912946,45.7299699 42.7983649,46.6292973 C42.9589703,48.0576408 42.9054352,49.538886 42.9589703,50.9672295 C43.0660406,51.8136553 42.9589703,52.7129827 42.6912946,53.5065069 C42.3700838,54.2471295 41.620592,54.5645392 40.817565,54.6703424 C39.211511,54.8290472 37.605457,54.8290472 35.999403,54.6703424 C34.6610246,54.5116376 33.3226463,54.5116376 31.984268,54.5645392 C31.2883112,54.5645392 30.6458896,54.9877521 30.378214,55.6225714 C30.003468,56.6277021 30.0570032,57.8973408 30.0570032,58.955373 C30.0570032,61.3888472 30.0570032,63.8223214 30.0570032,66.2557956 C30.0570032,71.4401536 30.0570032,76.6774133 30.1105383,81.8617713 C30.1105383,84.4539504 30.1105383,87.0461294 30.1105383,89.6383084 C30.1105383,92.0717826 30.003468,94.5581584 30.1640734,96.9916326 C30.2176086,97.9967632 30.4852842,99.6896148 29.575187,100.483139 C28.6650897,101.329565 26.79136,100.906352 25.7206574,100.800549 C22.0802683,100.377336 18.5469495,99.7425164 14.9065605,99.1605987 C13.0328308,98.8960906 12.7651551,97.6264519 12.8186903,96.0923052 C12.8722254,89.2150955 12.8186903,82.3378859 12.8186903,75.4606762 L12.7651551,75.4077746 Z" id="Shape"></path>
                <path d="M227.530787,43.2427252 C227.478222,45.9500741 228.897472,46.9586943 231.15776,47.489547 C235.047557,48.3919967 238.937354,49.3475316 242.827151,50.2499812 C244.088707,50.5684929 245.297698,51.2586014 245.770782,52.5326479 C245.981041,53.2758418 246.033606,54.0190356 245.981041,54.8153147 C245.928476,55.9301054 245.981041,56.9918109 245.981041,58.1066016 C245.981041,58.8497954 245.981041,59.7522451 245.560522,60.3892683 C245.192569,60.8670358 244.614355,61.0793769 244.036142,60.9732063 C242.932281,60.8670358 241.82842,60.6016094 240.777123,60.2300125 C239.410438,59.7522451 237.991187,59.4337334 236.571937,59.1683071 C232.366751,58.5843691 228.161564,58.0535163 223.956378,57.5226636 C221.80122,57.2572372 219.646062,56.9918109 217.543469,56.7794698 C216.492173,56.6732992 215.493441,56.5671287 214.442144,56.4078729 C213.706237,56.3547876 213.022894,56.248617 212.339551,56.0893612 C210.920301,55.664679 210.447218,54.496803 210.499782,53.0635007 C210.604912,51.7363689 210.236958,50.4623223 210.236958,49.1351905 C210.131829,35.2799343 209.869004,21.3715928 210.079264,7.51633658 C210.184393,-1.45507453 208.765143,-0.0217721672 217.911423,0.243654197 C219.908887,0.29673947 221.853785,0.455995288 223.851249,0.721421653 C224.587156,0.827592198 225.480758,0.827592198 226.111536,1.25227438 C226.637184,1.57078602 227.211528,1.90863824 227.369222,2.49257624 C227.474352,3.44811115 227.369222,4.15738496 227.369222,5.11291987 C227.421787,6.06845478 227.316657,8.09328587 227.369222,9.04882078 C227.474352,11.0660611 227.264092,26.2063191 227.369222,28.2235595 L227.530787,43.2427252 Z" id="Shape"></path>
                <path d="M203.945783,28.3853731 C203.945783,36.569165 203.891566,44.8064458 204,52.9902377 C204,54.0065255 203.891566,55.1297911 203.078313,55.8786348 C202.319277,56.6274785 201.180723,56.7344562 200.150602,56.8414338 C196.355422,57.108878 192.614458,57.5902775 188.819277,57.9646994 C186.921687,58.1786547 186,57.429811 186,55.4507241 C186.054217,38.4947631 186.108434,21.592291 186.108434,4.63632998 C186.108434,2.71073188 186.975904,1.53397749 188.873494,1.32002215 C192.451807,0.892111462 196.03012,0.571178447 199.554217,0.196756595 C200.638554,0.0897789234 202.048193,-0.284642928 203.024096,0.410711939 C203.837349,0.999089134 203.945783,2.06886585 203.945783,2.97817606 C203.891566,11.4294121 203.945783,19.9341371 203.945783,28.3853731 Z" id="Shape"></path>
            </g>
        </g>
    </g>
</svg>